<?xml version="1.0" encoding="UTF-8" standalone="no"?>
<svg
   id="delta_T"
   data-name="delta T"
   viewBox="0 0 576.00002 576.00001"
   version="1.1"
   sodipodi:docname="Logo Square 11096.svg"
   width="6in"
   height="6in"
   inkscape:export-filename="Logo Square 11096.png"
   inkscape:export-xdpi="500"
   inkscape:export-ydpi="500"
   inkscape:version="1.4.2 (ebf0e940, 2025-05-08)"
   xmlns:inkscape="http://www.inkscape.org/namespaces/inkscape"
   xmlns:sodipodi="http://sodipodi.sourceforge.net/DTD/sodipodi-0.dtd"
   xmlns="http://www.w3.org/2000/svg"
   xmlns:svg="http://www.w3.org/2000/svg">
  <sodipodi:namedview
     id="namedview10"
     pagecolor="#ffffff"
     bordercolor="#000000"
     borderopacity="0.25"
     inkscape:showpageshadow="2"
     inkscape:pageopacity="0.0"
     inkscape:pagecheckerboard="0"
     inkscape:deskcolor="#d1d1d1"
     inkscape:zoom="0.66217891"
     inkscape:cx="244.64687"
     inkscape:cy="248.42229"
     inkscape:window-width="1472"
     inkscape:window-height="890"
     inkscape:window-x="0"
     inkscape:window-y="38"
     inkscape:window-maximized="0"
     inkscape:current-layer="delta_T"
     inkscape:document-units="in" />
  <defs
     id="defs1">
    <style
       id="style1">
      .cls-1 {
        fill: #231f20;
        fill-rule: evenodd;
      }

      .cls-2 {
        fill: #333;
      }
    </style>
  </defs>
  <path
     class="cls-2"
     d="m 347.66705,137.65522 c -5.10589,11.39164 -9.94739,22.21373 -14.21923,31.71357 46.60415,-0.0611 155.35391,-0.32548 189.06103,-0.52889 l 14.38199,-31.18468 z"
     id="path1"
     style="stroke-width:2.03422" />
  <path
     class="cls-2"
     d="m 356.92277,237.55609 c -5.10589,11.39164 -9.94734,22.21374 -14.21923,31.71358 46.60415,-0.0611 64.56637,-0.32548 98.27349,-0.5289 l 14.38198,-31.18468 z"
     id="path2"
     style="stroke-width:2.03422" />
  <path
     class="cls-2"
     d="m 379.40101,187.61584 c -5.10594,11.39164 -9.94739,22.21374 -14.21928,31.71357 46.60414,-0.061 50.32682,-0.32547 84.03393,-0.52889 l 14.38199,-31.18468 z"
     id="path3"
     style="stroke-width:2.03422" />
  <path
     class="cls-2"
     d="m 334.46491,287.49634 c -5.10588,11.39169 -9.94733,22.21379 -14.21922,31.71363 46.60415,-0.0611 42.18987,-0.32548 75.89697,-0.5289 l 14.382,-31.18473 z"
     id="path4"
     style="stroke-width:2.03422" />
  <path
     class="cls-2"
     d="m 281.88017,137.65522 -43.39006,31.51015 -162.94157,118.31064 -26.729739,19.40653 7.160476,12.2664 c 0,0 102.240243,-0.30515 185.521483,-0.48825 2.5021,-5.55342 7.56732,-16.82306 14.01583,-31.205 15.31773,-34.114 38.34517,-85.53927 52.80851,-118.55477 7.28256,-16.59927 12.38845,-28.54018 13.28349,-31.26603 H 281.88017 Z M 222.0739,291.56481 H 111.85949 L 275.12653,173.05075 Z"
     id="path5"
     style="stroke-width:2.03422" />
  <g
     id="g10"
     transform="matrix(2.0342268,0,0,2.0342268,-900.27587,-4106.515)"
     style="fill:#333333;fill-opacity:1">
    <path
       class="cls-1"
       d="m 536.59,2201.85 h 10.11 c 1.98,0 3.49,1.13 2.63,3.28 -1.3,3.47 -8.76,22.74 -10.35,26.63 -0.77,1.88 -1.01,2.91 -2.7,2.94 -1.9,0.03 -4.32,0 -6.16,0 -1.66,0.02 -1.18,-1.49 -0.71,-2.68 3.44,-8.74 5.21,-13.5 7.92,-20.77 0.52,-1.39 -0.11,-1.55 -1.14,-1.55 h -2.7 c -1.38,0 -2.05,-0.61 -1.46,-2.25 0.74,-2.06 0.99,-2.61 1.34,-3.61 0.74,-2.1 1.73,-1.99 3.22,-1.99 z"
       id="path6"
       style="fill:#333333;fill-opacity:1" />
    <path
       class="cls-1"
       d="m 581.27,2201.85 h -17.68 c -3.73,0 -6.32,2.99 -7.49,5.56 -1.57,3.46 -5.34,12.27 -8.32,19.06 -1.35,3.07 -0.76,8.28 3.88,8.25 6.46,-0.04 12.42,-0.01 17.9,-0.08 1.53,-0.02 5.79,-1.09 7.86,-6.15 2.54,-6.2 4.77,-12.44 7.85,-20.3 0.98,-2.5 -0.17,-6.35 -4,-6.35 z m -6.54,10.93 c -0.61,1.43 -2.45,5.85 -4.72,11.67 -0.49,1.25 -0.86,2.34 -2.91,2.39 -2.15,0.05 -7.01,-0.05 -8.98,0 -1.97,0.05 -0.82,-2.19 -0.66,-2.59 0.16,-0.4 4.75,-11.25 5.21,-12.24 0.74,-1.62 1.11,-2.48 2.95,-2.48 1.84,0 5.95,0 7.9,0 2.52,0 1.74,2.05 1.23,3.25 z"
       id="path7"
       style="fill:#333333;fill-opacity:1" />
    <path
       class="cls-1"
       d="m 621.08,2201.92 c -5.26,0 -17.35,-0.03 -22.27,-0.03 -1.73,0 -3.39,0.39 -4.25,2.28 -2.42,5.33 -5.17,11.82 -6.49,14.86 -0.51,1.18 0.11,3.06 1.55,3.06 5.75,0 8.08,0.01 16.77,0.17 1.33,0 1.94,0.27 1.49,1.41 -0.47,1.2 -0.43,1.16 -0.75,1.93 -0.39,0.92 -1.38,1.23 -2.5,1.23 h -17.91 c -1.76,0 -2.51,0.99 -2.78,1.66 -0.73,1.81 -1.12,2.38 -1.72,4.02 -0.59,1.61 -0.01,2.2 1.54,2.2 h 22.86 c 3.12,0 7,-2.3 8.82,-7.23 2.97,-8.05 7.23,-19.03 8.35,-21.91 0.91,-2.36 1.33,-3.66 -2.71,-3.66 z m -8.56,9.66 c -0.23,0.58 -0.34,0.93 -0.88,2.24 -0.2,0.48 -0.54,2.01 -2.58,2.06 -2.15,0.05 -7.01,0 -8.98,0 -1.42,0 -1.48,-0.37 -0.91,-1.66 0.49,-1.1 0.85,-1.9 1.39,-3.17 0.56,-1.3 1.13,-1.41 2.41,-1.41 1.79,0 6.25,0 8.2,0 1.14,0 2.14,0 1.36,1.95 z"
       id="path8"
       style="fill:#333333;fill-opacity:1" />
    <path
       class="cls-1"
       d="m 623.72,2234.69 c 5.26,0 16.9,0.03 21.82,0.03 1.73,0 3.36,-1.11 4.19,-3.02 2.35,-5.4 5.17,-11.65 6.49,-14.69 0.51,-1.18 0.46,-2.5 -0.98,-2.5 -5.75,0 -8.76,-0.01 -17.45,-0.17 -1.33,0 -2.04,-0.16 -1.59,-1.3 0.47,-1.2 0.6,-1.46 0.92,-2.24 0.39,-0.92 1.31,-1.04 2.43,-1.04 h 17.64 c 1.76,0 2.65,-0.98 2.93,-1.65 0.73,-1.81 1.03,-2.58 1.84,-4.36 0.71,-1.57 -0.11,-1.86 -1.66,-1.86 h -20.95 c -3.12,0 -6.36,-0.36 -8.49,4.44 -3.62,8.15 -7.63,17.33 -10.1,23.19 -0.98,2.33 -1.07,5.17 2.98,5.17 z m 21.83,-12.06 c -0.23,0.58 -0.41,1.01 -0.95,2.32 -0.2,0.48 -0.45,1.95 -2.5,2 -2.15,0.05 -8.49,0 -10.46,0 -1.42,0 -1.23,-0.93 -0.65,-2.22 0.69,-1.51 0.45,-1.07 0.99,-2.32 0.54,-1.25 1.29,-1.71 2.8,-1.71 1.79,0 7.35,0 9.3,0 1.14,0 2.25,-0.03 1.46,1.92 z"
       id="path9"
       style="fill:#333333;fill-opacity:1" />
    <path
       class="cls-1"
       d="m 515.03,2201.85 h 10.11 c 1.98,0 3.49,1.13 2.63,3.28 -1.3,3.47 -8.76,22.74 -10.35,26.63 -0.77,1.88 -1.01,2.91 -2.7,2.94 -1.9,0.03 -4.32,0 -6.16,0 -1.66,0.02 -1.18,-1.49 -0.71,-2.68 3.44,-8.74 5.21,-13.5 7.92,-20.77 0.52,-1.39 -0.11,-1.55 -1.14,-1.55 h -2.7 c -1.38,0 -2.05,-0.61 -1.46,-2.25 0.74,-2.06 0.99,-2.61 1.34,-3.61 0.74,-2.1 1.73,-1.99 3.22,-1.99 z"
       id="path10"
       style="fill:#333333;fill-opacity:1" />
  </g>
</svg>
